<?xml version="1.0" encoding="UTF-8"?>
<svg height="600" width="800" xmlns="http://www.w3.org/2000/svg" xmlns:xlink="http://www.w3.org/1999/xlink">
    <style>
        .a { fill: none; stroke-linecap: round; stroke-linejoin: round; stroke: #000000 }
    </style>
    <g id="Notes" font-family="'LucidaGrande', 'Lucida Grande', sans-serif" font-size="13">
        <rect fill="white" height="600.0" width="800.0" x="0.0" y="0.0" />
        <g font-size="13">
            <text x="18.0" y="176.0">Small</text>
            <text x="18.0" y="376.0">Medium</text>
            <text x="18.0" y="576.0">Large</text>
        </g>
        <g font-size="9">
            <text x="250.0" y="30.0">Ultralight</text>
            <text x="450.0" y="30.0">Regular</text>
            <text x="650.0" y="30.0">Black</text>
            <text id="template-version" fill="#505050" text-anchor="end" x="785.0" y="575.0">Template v.3.0</text>
            <a href="https://github.com/swhitty/SwiftDraw">
                <text fill="#505050" text-anchor="end" x="785.0" y="590.0">https://github.com/swhitty/SwiftDraw</text>
            </a>
        </g>
    </g>
    <g id="Guides" stroke="rgb(39, 170, 225)" stroke-width="0.5">
        <path id="Capline-S" d="M18,76 l800,0" />
        <path id="H-reference" d="M85,145.755 L87.685,145.755 L113.369,79.287 L114.052,79.287 L114.052,76 L112.148,76 L85,145.755 Z M95.693,121.536 L130.996,121.536 L130.263,119.313 L96.474,119.313 L95.693,121.536 Z M139.15,145.755 L141.787,145.755 L114.638,76 L113.466,76 L113.466,79.287 L139.15,145.755 Z" stroke="none" transform="translate(0,0)" />
        <path id="Baseline-S" d="M18,146 l800,0" />
        <path id="left-margin-Ultralight-S" d="M221,56 l0,110" />
        <path id="right-margin-Ultralight-S" d="M309,56 l0,110" />
        <path id="left-margin-Regular-S" d="M421,56 l0,110" />
        <path id="right-margin-Regular-S" d="M509,56 l0,110" />
        <path id="left-margin-Black-S" d="M621,56 l0,110" />
        <path id="right-margin-Black-S" d="M709,56 l0,110" />
        <path id="Capline-M" d="M18,276 l800,0" />
        <path id="Baseline-M" d="M18,346 l800,0" />
        <path id="Capline-L" d="M18,476 l800,0" />
        <path id="Baseline-L" d="M18,546 l800,0" />
    </g>
    <g id="Symbols">
        <g id="Ultralight-S" transform="translate(0,0)">
            <path d="M273.65,134.889 L273.65,120.707 L272.421,121.763 C277.561,122.547 280.371,124.634 285.195,130.159 C285.551,130.567 285.551,130.567 285.909,130.978 C287.84,133.187 289.032,134.442 290.488,135.698 C290.682,135.865 290.93,135.957 291.186,135.957 L306.649,135.957 C307.423,135.957 307.94,135.159 307.624,134.453 C303.692,125.675 297.825,117.9 290.463,111.709 L290.64,113.154 C291.113,112.503 291.516,111.953 292.341,110.831 C292.39,110.765 292.39,110.765 292.438,110.7 C299.955,100.478 302.95,95.331 305.14,87.041 C305.319,86.364 304.808,85.7 304.108,85.7 L290.054,85.7 C289.695,85.7 289.36,85.88 289.162,86.18 C287.772,88.287 286.778,90.036 284.656,93.971 C284.635,94.009 284.635,94.009 284.615,94.047 C279.74,103.087 277.072,106.843 271.963,110.482 L273.65,111.352 L273.65,86.768 C273.65,86.178 273.172,85.7 272.582,85.7 L252.185,85.7 C251.287,85.7 250.789,86.741 251.354,87.44 L256.224,93.463 L255.986,92.791 L255.986,114.257 L257.178,113.196 C252.153,112.612 248.637,107.245 241.561,91.837 C241.551,91.817 241.551,91.817 241.542,91.797 C240.274,89.037 239.704,87.807 238.987,86.308 C238.81,85.937 238.435,85.7 238.024,85.7 L223.35,85.7 C222.624,85.7 222.11,86.409 222.335,87.1 C225.549,96.946 227.181,101.44 230.09,107.529 C239.691,127.63 253.165,138.43 272.717,135.949 C273.25,135.881 273.65,135.427 273.65,134.889 Z M271.514,134.889 L272.448,133.83 C253.993,136.172 241.266,125.97 232.017,106.609 C229.162,100.63 227.551,96.196 224.365,86.437 L223.35,87.836 L238.024,87.836 L237.06,87.229 C237.771,88.715 238.338,89.938 239.601,92.688 C239.61,92.708 239.61,92.708 239.62,92.729 C247.132,109.086 250.743,114.599 256.931,115.318 C257.565,115.391 258.122,114.896 258.122,114.257 L258.122,92.791 C258.122,92.547 258.038,92.31 257.885,92.12 L253.015,86.097 L252.185,87.836 L272.582,87.836 L271.514,86.768 L271.514,111.352 C271.514,112.22 272.495,112.726 273.202,112.222 C278.66,108.334 281.471,104.377 286.495,95.061 C286.515,95.023 286.515,95.023 286.536,94.985 C288.628,91.105 289.601,89.393 290.945,87.356 L290.054,87.836 L304.108,87.836 L303.075,86.495 C300.973,94.453 298.085,99.416 290.717,109.434 C290.669,109.5 290.669,109.5 290.621,109.566 C289.793,110.691 289.388,111.243 288.912,111.899 C288.583,112.353 288.66,112.984 289.089,113.344 C296.204,119.327 301.874,126.842 305.675,135.326 L306.649,133.822 L291.186,133.822 L291.883,134.081 C290.523,132.908 289.386,131.711 287.518,129.573 C287.161,129.164 287.161,129.164 286.804,128.754 C281.676,122.88 278.513,120.531 272.743,119.651 C272.097,119.553 271.514,120.053 271.514,120.707 L271.514,134.889 Z" />
        </g>
        <g id="Regular-S" transform="translate(0,0)">
            <path d="M473.65,134.889 L473.65,120.707 L472.421,121.763 C477.561,122.547 480.371,124.634 485.195,130.159 C485.551,130.567 485.551,130.567 485.909,130.978 C487.84,133.187 489.032,134.442 490.488,135.698 C490.682,135.865 490.93,135.957 491.186,135.957 L506.649,135.957 C507.423,135.957 507.94,135.159 507.624,134.453 C503.692,125.675 497.825,117.9 490.463,111.709 L490.64,113.154 C491.113,112.503 491.516,111.953 492.341,110.831 C492.39,110.765 492.39,110.765 492.438,110.7 C499.955,100.478 502.95,95.331 505.14,87.041 C505.319,86.364 504.808,85.7 504.108,85.7 L490.054,85.7 C489.695,85.7 489.36,85.88 489.162,86.18 C487.772,88.287 486.778,90.036 484.656,93.971 C484.635,94.009 484.635,94.009 484.615,94.047 C479.74,103.087 477.072,106.843 471.963,110.482 L473.65,111.352 L473.65,86.768 C473.65,86.178 473.172,85.7 472.582,85.7 L452.185,85.7 C451.286,85.7 450.789,86.741 451.354,87.44 L456.224,93.463 L455.986,92.791 L455.986,114.257 L457.178,113.196 C452.153,112.612 448.637,107.245 441.561,91.837 C441.551,91.817 441.551,91.817 441.542,91.797 C440.274,89.037 439.704,87.807 438.987,86.308 C438.81,85.937 438.435,85.7 438.024,85.7 L423.35,85.7 C422.624,85.7 422.11,86.409 422.335,87.1 C425.549,96.946 427.181,101.44 430.09,107.529 C439.691,127.63 453.165,138.43 472.717,135.949 C473.25,135.881 473.65,135.427 473.65,134.889 Z M471.514,134.889 L472.448,133.83 C453.993,136.172 441.266,125.97 432.017,106.609 C429.162,100.63 427.551,96.196 424.366,86.437 L423.35,87.836 L438.024,87.836 L437.06,87.229 C437.771,88.715 438.338,89.938 439.601,92.688 C439.61,92.708 439.61,92.708 439.62,92.729 C447.132,109.086 450.743,114.599 456.931,115.318 C457.565,115.391 458.122,114.896 458.122,114.257 L458.122,92.791 C458.122,92.547 458.038,92.31 457.885,92.12 L453.015,86.097 L452.185,87.836 L472.582,87.836 L471.514,86.768 L471.514,111.352 C471.514,112.22 472.495,112.726 473.202,112.222 C478.66,108.334 481.471,104.377 486.495,95.061 C486.515,95.023 486.515,95.023 486.536,94.985 C488.628,91.105 489.601,89.393 490.945,87.356 L490.054,87.836 L504.108,87.836 L503.075,86.495 C500.973,94.453 498.085,99.416 490.717,109.434 C490.669,109.5 490.669,109.5 490.621,109.566 C489.793,110.691 489.388,111.243 488.912,111.899 C488.583,112.353 488.66,112.984 489.089,113.344 C496.204,119.327 501.874,126.842 505.675,135.326 L506.649,133.822 L491.186,133.822 L491.883,134.081 C490.523,132.908 489.386,131.711 487.518,129.573 C487.161,129.164 487.161,129.164 486.804,128.754 C481.676,122.88 478.513,120.531 472.743,119.651 C472.097,119.553 471.514,120.053 471.514,120.707 L471.514,134.889 Z" />
        </g>
        <g id="Black-S" transform="translate(0,0)">
            <path d="M673.65,134.889 L673.65,120.707 L672.421,121.763 C677.561,122.547 680.371,124.634 685.195,130.159 C685.551,130.567 685.551,130.567 685.909,130.978 C687.84,133.187 689.032,134.442 690.488,135.698 C690.682,135.865 690.93,135.957 691.186,135.957 L706.649,135.957 C707.423,135.957 707.94,135.159 707.624,134.453 C703.692,125.675 697.825,117.9 690.463,111.709 L690.64,113.154 C691.113,112.503 691.516,111.953 692.341,110.831 C692.39,110.765 692.39,110.765 692.438,110.7 C699.955,100.478 702.95,95.331 705.14,87.041 C705.319,86.364 704.808,85.7 704.108,85.7 L690.054,85.7 C689.695,85.7 689.36,85.88 689.162,86.18 C687.772,88.287 686.778,90.036 684.656,93.971 C684.635,94.009 684.635,94.009 684.615,94.047 C679.74,103.087 677.072,106.843 671.963,110.482 L673.65,111.352 L673.65,86.768 C673.65,86.178 673.172,85.7 672.582,85.7 L652.185,85.7 C651.286,85.7 650.789,86.741 651.354,87.44 L656.224,93.463 L655.986,92.791 L655.986,114.257 L657.178,113.196 C652.153,112.612 648.637,107.245 641.561,91.837 C641.551,91.817 641.551,91.817 641.542,91.797 C640.274,89.037 639.704,87.807 638.987,86.308 C638.81,85.937 638.435,85.7 638.024,85.7 L623.35,85.7 C622.624,85.7 622.11,86.409 622.335,87.1 C625.549,96.946 627.181,101.44 630.09,107.529 C639.691,127.63 653.165,138.43 672.717,135.949 C673.25,135.881 673.65,135.427 673.65,134.889 Z M671.514,134.889 L672.448,133.83 C653.993,136.172 641.266,125.97 632.017,106.609 C629.162,100.63 627.551,96.196 624.365,86.437 L623.35,87.836 L638.024,87.836 L637.06,87.229 C637.771,88.715 638.338,89.938 639.601,92.688 C639.61,92.708 639.61,92.708 639.62,92.729 C647.132,109.086 650.743,114.599 656.931,115.318 C657.565,115.391 658.122,114.896 658.122,114.257 L658.122,92.791 C658.122,92.547 658.038,92.31 657.885,92.12 L653.015,86.097 L652.185,87.836 L672.582,87.836 L671.514,86.768 L671.514,111.352 C671.514,112.22 672.495,112.726 673.202,112.222 C678.66,108.334 681.471,104.377 686.495,95.061 C686.515,95.023 686.515,95.023 686.536,94.985 C688.628,91.105 689.601,89.393 690.945,87.356 L690.054,87.836 L704.108,87.836 L703.075,86.495 C700.973,94.453 698.085,99.416 690.717,109.434 C690.669,109.5 690.669,109.5 690.621,109.566 C689.793,110.691 689.388,111.243 688.912,111.899 C688.583,112.353 688.66,112.984 689.089,113.344 C696.204,119.327 701.874,126.842 705.675,135.326 L706.649,133.822 L691.186,133.822 L691.883,134.081 C690.523,132.908 689.386,131.711 687.518,129.573 C687.161,129.164 687.161,129.164 686.804,128.754 C681.676,122.88 678.513,120.531 672.743,119.651 C672.097,119.553 671.514,120.053 671.514,120.707 L671.514,134.889 Z" />
        </g>
    </g>
</svg>