<?xml version="1.0" encoding="UTF-8"?>
<svg height="600" width="800" xmlns="http://www.w3.org/2000/svg" xmlns:xlink="http://www.w3.org/1999/xlink">
    <g id="Notes" font-family="'LucidaGrande', 'Lucida Grande', sans-serif" font-size="13">
        <rect fill="white" height="600.0" width="800.0" x="0.0" y="0.0" />
        <g font-size="13">
            <text x="18.0" y="176.0">Small</text>
            <text x="18.0" y="376.0">Medium</text>
            <text x="18.0" y="576.0">Large</text>
        </g>
        <g font-size="9">
            <text x="250.0" y="30.0">Ultralight</text>
            <text x="450.0" y="30.0">Regular</text>
            <text x="650.0" y="30.0">Black</text>
            <text id="template-version" fill="#505050" text-anchor="end" x="785.0" y="575.0">Template v.3.0</text>
            <a href="https://github.com/swhitty/SwiftDraw">
                <text fill="#505050" text-anchor="end" x="785.0" y="590.0">https://github.com/swhitty/SwiftDraw</text>
            </a>
        </g>
    </g>
    <g id="Guides" stroke="rgb(39, 170, 225)" stroke-width="0.5">
        <path id="Capline-S" d="M18,76 l800,0" />
        <path id="H-reference" d="M85,145.755 L87.685,145.755 L113.369,79.287 L114.052,79.287 L114.052,76 L112.148,76 L85,145.755 Z M95.693,121.536 L130.996,121.536 L130.263,119.313 L96.474,119.313 L95.693,121.536 Z M139.15,145.755 L141.787,145.755 L114.638,76 L113.466,76 L113.466,79.287 L139.15,145.755 Z" stroke="none" transform="translate(0,0)" />
        <path id="Baseline-S" d="M18,146 l800,0" />
        <path id="left-margin-Ultralight-S" d="M225.176,56 l0,110" />
        <path id="right-margin-Ultralight-S" d="M304.824,56 l0,110" />
        <path id="left-margin-Regular-S" d="M425.176,56 l0,110" />
        <path id="right-margin-Regular-S" d="M504.824,56 l0,110" />
        <path id="left-margin-Black-S" d="M625.176,56 l0,110" />
        <path id="right-margin-Black-S" d="M704.824,56 l0,110" />
        <path id="Capline-M" d="M18,276 l800,0" />
        <path id="Baseline-M" d="M18,346 l800,0" />
        <path id="Capline-L" d="M18,476 l800,0" />
        <path id="Baseline-L" d="M18,546 l800,0" />
    </g>
    <g id="Symbols">
        <g id="Ultralight-S" transform="translate(0,0)">
            <path d="M281.571,83.733 L229.235,83.733 C227.634,83.733 226.336,85.032 226.336,86.633 L226.336,143.1 C226.336,144.702 227.634,146 229.235,146 L243.802,146 C245.403,146 246.701,144.702 246.701,143.1 L246.701,124.73 L243.802,127.629 L271.714,127.629 L269.331,126.382 L282.066,144.752 C282.608,145.534 283.498,146 284.449,146 L300.759,146 C303.158,146 304.52,143.253 303.067,141.344 L289.024,122.889 L287.161,127.51 C292.212,126.726 296.03,124.771 298.45,121.568 C300.809,118.446 301.915,113.81 301.915,107.798 L301.915,103.565 C301.915,100.168 301.55,97.313 300.823,94.993 C300.079,92.624 298.804,90.535 296.994,88.675 C296.955,88.635 296.916,88.597 296.875,88.559 C294.99,86.832 292.88,85.608 290.4,84.806 L290.297,84.775 C287.855,84.083 284.95,83.734 281.571,83.734 L281.571,86.633 L284.47,86.633 L284.47,86.633 C284.47,85.032 283.172,83.733 281.571,83.733 Z M281.571,89.533 L281.571,86.633 L278.671,86.633 L278.671,86.633 C278.671,88.235 279.969,89.533 281.571,89.533 C284.446,89.533 286.827,89.82 288.718,90.355 L289.508,87.565 L288.616,90.324 C290.306,90.871 291.688,91.672 292.956,92.834 L294.916,90.697 L292.838,92.719 C294.028,93.942 294.824,95.247 295.289,96.729 C295.824,98.434 296.116,100.717 296.116,103.565 L296.116,107.798 C296.116,112.664 295.288,116.133 293.823,118.072 C292.405,119.948 289.943,121.21 286.272,121.78 C284.1,122.117 283.078,124.652 284.409,126.401 L298.452,144.856 L300.759,140.201 L284.449,140.201 L286.832,141.448 L274.097,123.078 C273.555,122.296 272.665,121.83 271.714,121.83 L243.802,121.83 C242.2,121.83 240.902,123.128 240.902,124.73 L240.902,143.1 L243.802,140.201 L229.235,140.201 L232.135,143.1 L232.135,86.633 L229.235,89.533 L281.571,89.533 Z M279.216,109.386 L243.802,109.386 L246.701,112.285 L246.701,99.078 L243.802,101.977 L279.216,101.977 C280,101.977 280.64,102.039 281.103,102.146 C281.275,102.186 281.405,102.228 281.489,102.265 C281.506,102.273 281.487,102.262 281.437,102.219 C281.399,102.187 281.374,102.158 281.363,102.141 C281.373,102.156 281.391,102.193 281.412,102.253 C281.495,102.484 281.549,102.84 281.549,103.311 L281.549,108.052 C281.549,108.57 281.493,108.954 281.407,109.199 C281.385,109.261 281.368,109.297 281.358,109.311 C281.371,109.292 281.398,109.261 281.438,109.227 C281.511,109.165 281.553,109.14 281.558,109.139 C281.484,109.169 281.359,109.205 281.186,109.24 C280.722,109.333 280.06,109.385 279.216,109.385 C277.61,109.385 276.31,110.69 276.316,112.295 L276.316,112.296 L279.216,112.285 L279.216,109.386 Z M279.216,115.185 C280.821,115.185 282.121,113.88 282.115,112.274 L282.115,112.273 L279.216,112.284 L279.216,115.184 C281.929,115.184 283.831,114.803 285.191,113.648 C286.667,112.396 287.349,110.447 287.349,108.052 L287.349,103.311 C287.349,100.985 286.655,99.042 285.191,97.799 C283.834,96.645 281.813,96.178 279.216,96.178 L243.802,96.178 C242.2,96.178 240.902,97.476 240.902,99.078 L240.902,112.285 C240.902,113.887 242.2,115.185 243.802,115.185 L279.216,115.185 Z" />
            <path d="M297.826,85.666 C300.493,85.666 302.657,83.502 302.657,80.833 C302.657,78.164 300.493,76 297.826,76 C295.156,76 292.992,78.164 292.992,80.833 C292.992,83.502 295.156,85.666 297.826,85.666 Z" />
        </g>
        <g id="Regular-S" transform="translate(0,0)">
            <path d="M481.571,83.733 L429.235,83.733 C427.634,83.733 426.336,85.032 426.336,86.633 L426.336,143.1 C426.336,144.702 427.634,146 429.235,146 L443.802,146 C445.403,146 446.701,144.702 446.701,143.1 L446.701,124.73 L443.802,127.629 L471.714,127.629 L469.331,126.382 L482.066,144.752 C482.608,145.534 483.498,146 484.449,146 L500.759,146 C503.158,146 504.52,143.253 503.067,141.344 L489.024,122.889 L487.161,127.51 C492.212,126.726 496.03,124.771 498.45,121.568 C500.809,118.446 501.915,113.81 501.915,107.798 L501.915,103.565 C501.915,100.168 501.551,97.313 500.823,94.993 C500.08,92.624 498.804,90.535 496.994,88.675 C496.955,88.635 496.916,88.597 496.875,88.559 C494.99,86.832 492.88,85.608 490.4,84.806 L490.297,84.775 C487.855,84.083 484.95,83.734 481.571,83.734 L481.571,86.633 L484.47,86.633 L484.47,86.633 C484.47,85.032 483.172,83.733 481.571,83.733 Z M481.571,89.533 L481.571,86.633 L478.671,86.633 L478.671,86.633 C478.671,88.235 479.969,89.533 481.571,89.533 C484.446,89.533 486.827,89.82 488.718,90.355 L489.508,87.565 L488.616,90.324 C490.306,90.871 491.688,91.672 492.956,92.834 L494.916,90.697 L492.838,92.719 C494.028,93.942 494.824,95.247 495.289,96.729 C495.824,98.434 496.116,100.717 496.116,103.565 L496.116,107.798 C496.116,112.664 495.288,116.133 493.823,118.072 C492.405,119.948 489.943,121.21 486.272,121.78 C484.1,122.117 483.078,124.652 484.409,126.401 L498.452,144.856 L500.759,140.201 L484.449,140.201 L486.832,141.448 L474.097,123.078 C473.555,122.296 472.665,121.83 471.714,121.83 L443.802,121.83 C442.2,121.83 440.902,123.128 440.902,124.73 L440.902,143.1 L443.802,140.201 L429.235,140.201 L432.135,143.1 L432.135,86.633 L429.235,89.533 L481.571,89.533 Z M479.216,109.386 L443.802,109.386 L446.701,112.285 L446.701,99.078 L443.802,101.977 L479.216,101.977 C480,101.977 480.64,102.039 481.103,102.146 C481.275,102.186 481.405,102.228 481.489,102.265 C481.506,102.273 481.487,102.262 481.437,102.219 C481.399,102.187 481.374,102.158 481.363,102.141 C481.373,102.156 481.391,102.193 481.412,102.253 C481.495,102.484 481.549,102.84 481.549,103.311 L481.549,108.052 C481.549,108.57 481.493,108.954 481.407,109.199 C481.385,109.261 481.368,109.297 481.358,109.311 C481.371,109.292 481.398,109.261 481.438,109.227 C481.511,109.165 481.553,109.14 481.558,109.139 C481.484,109.169 481.359,109.205 481.186,109.24 C480.722,109.333 480.06,109.385 479.216,109.385 C477.61,109.385 476.31,110.69 476.316,112.295 L476.316,112.296 L479.216,112.285 L479.216,109.386 Z M479.216,115.185 C480.821,115.185 482.121,113.88 482.115,112.274 L482.115,112.273 L479.216,112.284 L479.216,115.184 C481.929,115.184 483.831,114.803 485.191,113.648 C486.667,112.396 487.349,110.447 487.349,108.052 L487.349,103.311 C487.349,100.985 486.655,99.042 485.191,97.799 C483.834,96.645 481.813,96.178 479.216,96.178 L443.802,96.178 C442.2,96.178 440.902,97.476 440.902,99.078 L440.902,112.285 C440.902,113.887 442.2,115.185 443.802,115.185 L479.216,115.185 Z" />
            <path d="M497.826,85.666 C500.493,85.666 502.657,83.502 502.657,80.833 C502.657,78.164 500.493,76 497.826,76 C495.156,76 492.992,78.164 492.992,80.833 C492.992,83.502 495.156,85.666 497.826,85.666 Z" />
        </g>
        <g id="Black-S" transform="translate(0,0)">
            <path d="M681.571,83.733 L629.235,83.733 C627.634,83.733 626.336,85.032 626.336,86.633 L626.336,143.1 C626.336,144.702 627.634,146 629.235,146 L643.802,146 C645.403,146 646.701,144.702 646.701,143.1 L646.701,124.73 L643.802,127.629 L671.714,127.629 L669.331,126.382 L682.066,144.752 C682.608,145.534 683.498,146 684.449,146 L700.759,146 C703.158,146 704.52,143.253 703.067,141.344 L689.024,122.889 L687.161,127.51 C692.212,126.726 696.03,124.771 698.45,121.568 C700.809,118.446 701.915,113.81 701.915,107.798 L701.915,103.565 C701.915,100.168 701.55,97.313 700.823,94.993 C700.08,92.624 698.804,90.535 696.994,88.675 C696.955,88.635 696.916,88.597 696.875,88.559 C694.99,86.832 692.88,85.608 690.4,84.806 L690.297,84.775 C687.855,84.083 684.95,83.734 681.571,83.734 L681.571,86.633 L684.47,86.633 L684.47,86.633 C684.47,85.032 683.172,83.733 681.571,83.733 Z M681.571,89.533 L681.571,86.633 L678.671,86.633 L678.671,86.633 C678.671,88.235 679.969,89.533 681.571,89.533 C684.446,89.533 686.827,89.82 688.718,90.355 L689.508,87.565 L688.616,90.324 C690.306,90.871 691.688,91.672 692.956,92.834 L694.916,90.697 L692.838,92.719 C694.028,93.942 694.824,95.247 695.289,96.729 C695.824,98.434 696.116,100.717 696.116,103.565 L696.116,107.798 C696.116,112.664 695.288,116.133 693.823,118.072 C692.405,119.948 689.943,121.21 686.272,121.78 C684.1,122.117 683.078,124.652 684.409,126.401 L698.452,144.856 L700.759,140.201 L684.449,140.201 L686.832,141.448 L674.097,123.078 C673.555,122.296 672.665,121.83 671.714,121.83 L643.802,121.83 C642.2,121.83 640.902,123.128 640.902,124.73 L640.902,143.1 L643.802,140.201 L629.235,140.201 L632.135,143.1 L632.135,86.633 L629.235,89.533 L681.571,89.533 Z M679.216,109.386 L643.802,109.386 L646.701,112.285 L646.701,99.078 L643.802,101.977 L679.216,101.977 C680,101.977 680.64,102.039 681.103,102.146 C681.275,102.186 681.405,102.228 681.489,102.265 C681.506,102.273 681.487,102.262 681.437,102.219 C681.399,102.187 681.374,102.158 681.363,102.141 C681.373,102.156 681.391,102.193 681.412,102.253 C681.495,102.484 681.549,102.84 681.549,103.311 L681.549,108.052 C681.549,108.57 681.493,108.954 681.407,109.199 C681.385,109.261 681.368,109.297 681.358,109.311 C681.371,109.292 681.398,109.261 681.438,109.227 C681.511,109.165 681.553,109.14 681.558,109.139 C681.484,109.169 681.359,109.205 681.186,109.24 C680.722,109.333 680.06,109.385 679.216,109.385 C677.61,109.385 676.31,110.69 676.316,112.295 L676.316,112.296 L679.216,112.285 L679.216,109.386 Z M679.216,115.185 C680.821,115.185 682.121,113.88 682.115,112.274 L682.115,112.273 L679.216,112.284 L679.216,115.184 C681.929,115.184 683.831,114.803 685.191,113.648 C686.667,112.396 687.349,110.447 687.349,108.052 L687.349,103.311 C687.349,100.985 686.655,99.042 685.191,97.799 C683.834,96.645 681.813,96.178 679.216,96.178 L643.802,96.178 C642.2,96.178 640.902,97.476 640.902,99.078 L640.902,112.285 C640.902,113.887 642.2,115.185 643.802,115.185 L679.216,115.185 Z" />
            <path d="M697.826,85.666 C700.493,85.666 702.657,83.502 702.657,80.833 C702.657,78.164 700.493,76 697.826,76 C695.156,76 692.992,78.164 692.992,80.833 C692.992,83.502 695.156,85.666 697.826,85.666 Z" />
        </g>
    </g>
</svg>